#!OML:ASF H:\ManfredETheater\Project 1\Capture day 1\Session 1\subject.ASF
:FULLY-SPECIFIED
:DEGREES
139
root -1.34353 2.55945 -13.2947 109.312 34.8161 -135.184
lowerback 27.6352 -3.01373 -4.24094
upperback 9.83805 -2.67731 6.46337
thorax -3.59257 -0.564149 10.446
lowerneck -6.48317 -8.58983 -8.2697
upperneck 9.70425 -11.5212 7.85558
head 4.90864 -5.45302 2.97383
rclavicle -2.54444e-014 6.67916e-014
rhumerus -0.627988 -8.74941 -61.5043
rradius 95.1509
rwrist -5.33239
rhand -27.3634 -11.7948
rfingers 7.12502
rthumb -0.77106 -41.7732
lclavicle -2.54444e-014 6.67916e-014
lhumerus -22.6803 2.41819 83.9338
lradius 94.822
lwrist -3.30795
lhand -29.1167 -3.72541
lfingers 7.12502
lthumb -2.46437 26.2401
rfemur -114.303 -49.7289 48.1898
rtibia 128.546
rfoot 30.1306 13.6193
rtoes -14.5432
lfemur -51.4552 70.1116 9.8768
ltibia 147.324
lfoot 52.5543 -6.55585
ltoes 41.0057
140
root -1.35201 2.6511 -13.5093 113.534 30.1137 -132.101
lowerback 26.7406 -0.576285 -4.7656
upperback 8.92022 -3.49347 6.82809
thorax -4.0711 -2.90722 11.5576
lowerneck -6.41663 -8.82092 -8.33477
upperneck 10.0362 -11.9442 8.87613
head 5.10262 -5.57423 3.25835
rclavicle -1.17681e-013 1.82882e-013
rhumerus 0.128671 -10.3981 -60.2127
rradius 93.4239
rwrist -6.67787
rhand -26.2795 -12.9112
rfingers 7.12502
rthumb 0.27575 -42.8908
lclavicle -1.17681e-013 1.82882e-013
lhumerus -24.161 4.03572 82.6589
lradius 93.3044
lwrist -6.81018
lhand -30.1497 -1.30635
lfingers 7.12502
lthumb -3.46204 28.6453
rfemur -113.594 -50.6115 45.4589
rtibia 126.324
rfoot 30.7486 16.2027
rtoes -16.582
lfemur -63.561 66.2862 -6.1201
ltibia 146.501
lfoot 49.5932 -4.14728
ltoes 39.015
141
root -1.36235 2.74046 -13.7277 117.039 26.001 -129.476
lowerback 26.2965 -0.647504 -5.78499
upperback 8.46598 -3.62589 6.84829
thorax -4.25899 -2.84893 12.2214
lowerneck -6.35581 -9.04837 -8.4065
upperneck 10.3407 -12.3659 9.91952
head 5.29648 -5.68757 3.5521
rclavicle -4.13472e-014 1.09729e-013
rhumerus 0.759293 -12.2201 -58.759
rradius 91.7094
rwrist -7.95952
rhand -25.5824 -13.9662
rfingers 7.12502
rthumb 0.94911 -43.9439
lclavicle -4.13472e-014 1.09729e-013
lhumerus -25.1614 5.50331 81.4319
lradius 91.5601
lwrist -10.3805
lhand -30.5029 0.476087
lfingers 7.12502
lthumb -3.80306 30.4219
rfemur -111.636 -50.9024 42.4406
rtibia 123.662
rfoot 29.9827 18.498
rtoes -18.132
lfemur -70.721 62.6043 -16.4314
ltibia 145.735
lfoot 46.6734 -2.51916
ltoes 36.9197
142
root -1.37304 2.83061 -13.9447 119.995 22.6128 -127.076
lowerback 26.1255 -0.668856 -5.9393
upperback 8.17736 -3.57106 6.98056
thorax -4.48862 -2.74275 12.4598
lowerneck -6.27067 -9.26084 -8.46874
upperneck 10.5621 -12.7659 10.9495
head 5.46269 -5.7888 3.84551
rclavicle -6.36111e-015 9.85972e-014
rhumerus 1.32635 -14.1517 -57.2468
rradius 89.9855
rwrist -8.91552
rhand -25.3668 -14.7657
rfingers 7.12502
rthumb 1.15729 -44.7423
lclavicle -6.36111e-015 9.85972e-014
lhumerus -25.5985 7.00442 80.2814
lradius 89.5547
lwrist -13.8479
lhand -30.4334 1.85005
lfingers 7.12502
lthumb -3.73596 31.797
rfemur -108.646 -50.5264 39.4459
rtibia 120.669
rfoot 27.955 20.061
rtoes -19.5377
lfemur -75.0286 59.4838 -22.9807
ltibia 145.055
lfoot 43.8534 -1.87101
ltoes 34.5225
143
root -1.38377 2.92635 -14.1565 122.41 19.7056 -124.884
lowerback 26.1939 -0.622199 -5.56152
upperback 8.05641 -3.36758 7.15669
thorax -4.71892 -2.60197 12.3983
lowerneck -6.17223 -9.44481 -8.52195
upperneck 10.7446 -13.1267 11.9679
head 5.61453 -5.8693 4.14014
rclavicle -4.13472e-014 -2.22639e-014
rhumerus 1.84393 -16.1173 -55.7596
rradius 88.2531
rwrist -9.38733
rhand -25.6171 -15.2358
rfingers 7.12502
rthumb 0.915597 -45.2136
lclavicle -4.13472e-014 -2.22639e-014
lhumerus -25.5643 8.53356 79.2662
lradius 87.3564
lwrist -17.1454
lhand -30.2695 3.05677
lfingers 7.12502
lthumb -3.57768 33.0065
rfemur -105.006 -49.6098 36.4665
rtibia 117.46
rfoot 24.9864 20.7587
rtoes -21.4328
lfemur -77.3551 56.7526 -27.0772
ltibia 144.392
lfoot 41.0919 -2.19968
ltoes 31.579
144
root -1.39123 3.02978 -14.3598 124.334 17.01 -122.908
lowerback 26.5238 -0.514115 -4.978
upperback 8.07108 -3.08355 7.31937
thorax -4.95689 -2.44894 12.1878
lowerneck -6.06432 -9.59662 -8.56306
upperneck 10.8966 -13.4424 12.9668
head 5.75294 -5.9274 4.43381
rclavicle 3.18055e-015 -1.59028e-013
rhumerus 2.3621 -18.0457 -54.3662
rradius 86.5273
rwrist -9.34773
rhand -26.2423 -15.4115
rfingers 7.12502
rthumb 0.311756 -45.3911
lclavicle 3.18055e-015 -1.59028e-013
lhumerus -25.1456 9.95089 78.4616
lradius 85.181
lwrist -20.4668
lhand -30.031 5.06198
lfingers 7.12502
lthumb -3.34739 35.0154
rfemur -101.125 -48.2884 33.4791
rtibia 114.12
rfoot 21.5784 20.3538
rtoes -23.8965
lfemur -78.2733 54.0363 -29.641
ltibia 143.687
lfoot 38.4302 -3.34244
ltoes 27.8477
145
root -1.39327 3.14234 -14.5533 125.808 14.4838 -121.063
lowerback 27.1605 -0.368791 -4.21978
upperback 8.1993 -2.74984 7.48058
thorax -5.23198 -2.29584 11.8729
lowerneck -6.03688 -9.73649 -8.56204
upperneck 11.0919 -13.742 13.8963
head 5.91301 -5.97359 4.69874
rclavicle 9.54166e-015 -6.36111e-014
rhumerus 2.90265 -19.8987 -53.0765
rradius 84.8457
rwrist -8.9269
rhand -27.139 -15.4218
rfingers 7.12502
rthumb -0.554309 -45.4008
lclavicle 9.54166e-015 -6.36111e-014
lhumerus -24.4885 11.0115 77.9312
lradius 83.211
lwrist -23.9566
lhand -29.8423 8.52134
lfingers 7.12502
lthumb -3.16513 38.4776
rfemur -97.13 -46.6563 30.5508
rtibia 110.684
rfoot 18.3062 18.7271
rtoes -26.696
lfemur -78.1102 51.2458 -30.9603
ltibia 142.937
lfoot 35.9505 -5.22581
ltoes 23.1216
146
root -1.38717 3.26517 -14.7384 126.894 12.1576 -119.227
lowerback 28.1018 -0.227866 -3.21685
upperback 8.433 -2.39536 7.67677
thorax -5.53715 -2.16086 11.4605
lowerneck -6.14045 -9.87232 -8.58542
upperneck 11.3035 -14.0383 14.8654
head 6.10975 -6.0061 4.97663
rclavicle 4.13472e-014 -1.01778e-013
rhumerus 3.52722 -21.6512 -51.8998
rradius 83.2343
rwrist -8.33674
rhand -28.1298 -15.385
rfingers 7.12502
rthumb -1.51127 -45.3594
lclavicle 4.13472e-014 -1.01778e-013
lhumerus -23.6829 11.4868 77.6542
lradius 81.598
lwrist -27.6356
lhand -29.1593 12.5411
lfingers 7.12502
lthumb -2.5056 42.5062
rfemur -93.1071 -44.7708 27.8359
rtibia 107.176
rfoot 15.8552 16.0009
rtoes -28.9451
lfemur -77.2253 48.4489 -31.191
ltibia 142.173
lfoot 33.7947 -7.38178
ltoes 18.0064
147
root -1.37303 3.39891 -14.9154 127.665 10.0434 -117.294
lowerback 29.4159 -0.147499 -1.89177
upperback 8.59225 -2.06987 8.287
thorax -5.85238 -2.10605 10.6102
lowerneck -6.42685 -9.06317 -8.75598
upperneck 11.2418 -14.3561 16.1101
head 6.28092 -6.92588 5.27162
rclavicle -1.11319e-013 6.04305e-014
rhumerus 4.27596 -23.2358 -50.816
rradius 81.7143
rwrist -7.8426
rhand -29.107 -15.3888
rfingers 7.12502
rthumb -2.45501 -45.3544
lclavicle -1.11319e-013 6.04305e-014
lhumerus -22.8991 11.1433 77.5243
lradius 80.5016
lwrist -31.4622
lhand -27.8628 16.621
lfingers 7.12502
lthumb -1.25342 46.5971
rfemur -89.15 -42.6992 25.4444
rtibia 103.618
rfoot 14.698 12.4689
rtoes -29.8132
lfemur -76.1125 45.6863 -30.5655
ltibia 141.469
lfoot 32.191 -9.70694
ltoes 13.1534
148
root -1.35308 3.54289 -15.0864 128.183 8.13883 -115.259
lowerback 30.8616 -0.160072 -0.284305
upperback 8.88549 -1.76185 8.63298
thorax -6.19542 -2.05416 10.0428
lowerneck -6.89542 -9.10685 -8.88161
upperneck 11.4336 -14.6336 17.1325
head 6.55637 -7.00603 5.56249
rclavicle -9.54166e-015 2.22639e-014
rhumerus 5.17762 -24.5872 -49.7817
rradius 80.2938
rwrist -7.7041
rhand -29.9174 -15.4559
rfingers 7.12502
rthumb -3.2377 -45.4111
lclavicle -9.54166e-015 2.22639e-014
lhumerus -22.2489 10.0245 77.4504
lradius 79.871
lwrist -35.2789
lhand -26.0997 19.8076
lfingers 7.12502
lthumb 0.449426 49.7869
rfemur -85.3554 -40.4766 23.3891
rtibia 100.048
rfoot 14.9436 8.66314
rtoes -28.8781
lfemur -74.9719 43.0528 -29.1654
ltibia 140.876
lfoot 31.3416 -11.8331
ltoes 10.2514
